<svg width="43" height="45" viewBox="0 0 43 45" fill="none" xmlns="http://www.w3.org/2000/svg">
<g filter="url(#filter0_d_6_61)">
<path d="M16.5667 15.4167V1.85C16.5667 0.801546 15.7651 0 14.7167 0H8.55001C7.50156 0 6.70001 0.801546 6.70001 1.85V15.4167C6.70001 16.4651 7.50156 17.2667 8.55001 17.2667H14.7167C15.7651 17.2667 16.5667 16.4651 16.5667 15.4167ZM15.3333 13.5667H7.93335V3.7H15.3333V13.5667ZM8.55001 1.23333H14.7167C15.0867 1.23333 15.3333 1.47994 15.3333 1.85V2.46667H7.93335V1.85C7.93335 1.47994 8.17995 1.23333 8.55001 1.23333ZM7.93335 15.4167V14.8H15.3333V15.4167C15.3333 15.7867 15.0867 16.0333 14.7167 16.0333H8.55001C8.17995 16.0333 7.93335 15.7867 7.93335 15.4167Z" fill="#95E1D3"/>
<path d="M14.4701 8.63334L9.78333 4.87161V12.3951L14.4701 8.63334ZM11.0167 7.46173L12.4966 8.63334L11.0167 9.80495V7.46173Z" fill="#95E1D3"/>
<path d="M20.2667 10.4833C20.2667 6.41327 23.5966 3.08333 27.6667 3.08333C29.3932 3.08333 31.1201 3.7 32.4765 4.80988L31.1201 6.16667C28.7151 4.25494 25.2617 4.625 23.35 7.02994C22.5484 8.01667 22.1167 9.25 22.1167 10.4833H23.35C23.35 8.07839 25.2617 6.16667 27.6667 6.16667C28.5917 6.16667 29.5167 6.475 30.2568 7.02994L28.9 8.38673C28.5299 8.14012 28.0984 8.01667 27.6667 8.01667C26.3099 8.01667 25.2 9.12655 25.2 10.4833H26.4333C26.4333 9.80494 26.9883 9.25 27.6667 9.25C27.7901 9.25 27.8515 9.25 27.975 9.31173L27.2349 10.0515L28.0984 10.9151L28.8383 10.175C28.8383 10.2985 28.9 10.3599 28.9 10.4833C28.9 11.1617 28.3451 11.7167 27.6667 11.7167V12.95C29.0234 12.95 30.1333 11.8401 30.1333 10.4833C30.1333 10.0515 30.0099 9.62006 29.7633 9.25L31.1201 7.89321C32.5383 9.80494 32.1682 12.5182 30.2568 13.9367C29.5167 14.4917 28.5917 14.8 27.6667 14.8V16.0333C30.75 16.0333 33.2167 13.5667 33.2167 10.4833C33.2167 9.25 32.7849 8.01667 31.9833 7.02994L33.2784 5.73488C35.9299 8.81821 35.5599 13.5049 32.4151 16.1568C31.1201 17.2667 29.3932 17.8833 27.6667 17.8833V19.1167C32.4151 19.1167 36.3 15.2932 36.3 10.4833C36.3 8.38673 35.5599 6.41327 34.2034 4.80988L35.3133 3.7H38.15V2.46667H35.6833V0H34.45V2.83673L33.3401 3.94661C29.7015 0.863273 24.275 1.23333 21.1299 4.80988C19.7734 6.41327 19.0333 8.38673 19.0333 10.4833H20.2667Z" fill="#95E1D3"/>
<path d="M33.2166 22.8167H27.7901L16.0734 18.5H14.7166C13.6682 18.5 12.8666 19.3015 12.8666 20.35V32.6833C12.8666 33.7318 13.6682 34.5333 14.7166 34.5333H16.0734L27.7901 29.6H29.5166V35.15C29.5166 36.1985 30.3182 37 31.3666 37C32.4151 37 33.2166 36.1985 33.2166 35.15V29.6C34.2651 29.6 35.0666 28.7985 35.0666 27.75V24.6667C35.0666 23.6182 34.2651 22.8167 33.2166 22.8167ZM16.5666 19.9799L27.05 23.8651V28.5515L16.5666 32.9917V19.9799ZM14.1 32.6833V20.35C14.1 19.9799 14.3466 19.7333 14.7166 19.7333H15.3333V33.3H14.7166C14.3466 33.3 14.1 33.0534 14.1 32.6833ZM31.9833 35.15C31.9833 35.5201 31.7367 35.7667 31.3666 35.7667C30.9966 35.7667 30.75 35.5201 30.75 35.15V29.6H31.9833V35.15ZM33.8333 27.75C33.8333 28.1201 33.5867 28.3667 33.2166 28.3667H28.2833V24.05H33.2166C33.5867 24.05 33.8333 24.2966 33.8333 24.6667V27.75Z" fill="#95E1D3"/>
<path d="M9.16669 25.2833H11.6334V26.5167H9.16669V25.2833Z" fill="#95E1D3"/>
<path d="M9.35638 20.7953L10.2284 19.923L12.06 21.7547L11.1877 22.6267L9.35638 20.7953Z" fill="#95E1D3"/>
<path d="M9.35638 31.0047L11.1877 29.173L12.0597 30.0453L10.2284 31.8767L9.35638 31.0047Z" fill="#95E1D3"/>
<path d="M19.0333 11.7784V12.3951C19.0333 16.0951 22.0549 19.1167 25.7549 19.1167H26.4333V11.7167H19.65L19.0333 11.7784ZM25.2 12.95V17.8833C22.6099 17.6367 20.575 15.5401 20.3284 12.95H25.2Z" fill="#95E1D3"/>
<path d="M17.8 1.85001H21.5V3.08334H17.8V1.85001Z" fill="#95E1D3"/>
<path d="M37.5333 12.95V24.6667C37.5333 25.0367 37.2867 25.2833 36.9167 25.2833H36.3V26.5167H36.9167C37.9651 26.5167 38.7667 25.7151 38.7667 24.6667V12.95H37.5333Z" fill="#95E1D3"/>
<path d="M5.46667 24.6667V12.95H4.23334V24.6667C4.23334 25.7151 5.03488 26.5167 6.08334 26.5167H7.93334V25.2833H6.08334C5.71328 25.2833 5.46667 25.0367 5.46667 24.6667Z" fill="#95E1D3"/>
</g>
<defs>
<filter id="filter0_d_6_61" x="-1" y="0" width="45" height="45" filterUnits="userSpaceOnUse" color-interpolation-filters="sRGB">
<feFlood flood-opacity="0" result="BackgroundImageFix"/>
<feColorMatrix in="SourceAlpha" type="matrix" values="0 0 0 0 0 0 0 0 0 0 0 0 0 0 0 0 0 0 127 0" result="hardAlpha"/>
<feOffset dy="4"/>
<feGaussianBlur stdDeviation="2"/>
<feComposite in2="hardAlpha" operator="out"/>
<feColorMatrix type="matrix" values="0 0 0 0 0 0 0 0 0 0 0 0 0 0 0 0 0 0 0.25 0"/>
<feBlend mode="normal" in2="BackgroundImageFix" result="effect1_dropShadow_6_61"/>
<feBlend mode="normal" in="SourceGraphic" in2="effect1_dropShadow_6_61" result="shape"/>
</filter>
</defs>
</svg>
